<?xml version="1.0" encoding="utf-8"?>
<!-- Generator: Adobe Illustrator 22.0.1, SVG Export Plug-In . SVG Version: 6.00 Build 0)  -->
<svg version="1.1" id="Layer_2_1_" xmlns="http://www.w3.org/2000/svg" xmlns:xlink="http://www.w3.org/1999/xlink" x="0px" y="0px"
	 viewBox="0 0 1918.9 763.5" style="enable-background:new 0 0 1918.9 763.5;" xml:space="preserve">
<style type="text/css">
	.st0{fill:#FFFFFF;}
</style>
<g>
	<path class="st0" d="M499.4,231.8h-40c-11,0-20,9-20,20v170c0,11-7.1,14.5-15.8,7.7L185.2,244c-8.7-6.8-24.8-12.3-35.8-12.3h-50
		c-11,0-29,0-40,0h-10c-11,0-20,9-20,20v10c0,11,9,20,20,20h10c11,0,20,9,20,20v210c0,11,9,20,20,20h40c11,0,20-9,20-20v-170
		c0-11,7.1-14.5,15.8-7.7l238.4,185.4c8.7,6.8,24.8,12.3,35.8,12.3h50c11,0,20-9,20-20v-260C519.4,240.8,510.4,231.8,499.4,231.8z"
		/>
	<path class="st0" d="M858.5,226.8H740.4c-94.1,0-161,39.3-161,154.8c0,115.9,66.9,155.2,161,155.2h118.1c94.1,0,161-39.3,161-155.2
		C1019.4,266.1,952.6,226.8,858.5,226.8z M858.5,463H740.4c-61.7,0-77.3-33.2-77.3-79.8s15.6-79.4,77.3-79.4h118.1
		c61.7,0,77.3,32.8,77.3,79.4S920.1,463,858.5,463z"/>
	<path class="st0" d="M1492.4,231.8h-44.8c-11,0-24.8,7.6-30.7,16.9l-134.4,213.1c-5.9,9.3-15.4,9.3-21.2-0.1l-132.6-213
		c-5.8-9.3-19.6-17-30.6-17h-46.4c-11,0-15.3,7.7-9.5,17l164.3,266c5.8,9.4,19.5,17,30.6,17h69.5c11,0,24.8-7.7,30.6-17l165-266
		C1507.7,239.4,1503.4,231.8,1492.4,231.8z"/>
	<path class="st0" d="M1886.9,514.7l-133.4-216c-5.8-9.4-1.5-17,9.5-17h9.8c11,0,20-9,20-20v-10c0-11-9-20-20-20h-40.7
		c-11,0-29.1,0-40.1,0h-69.5c-11,0-24.8,7.7-30.6,17l-165,266c-5.8,9.4-1.5,17,9.5,17h44.8c11,0,24.8-7.6,30.7-16.9l134.4-213.1
		c5.9-9.3,15.4-9.3,21.2,0.1l132.6,213c5.8,9.3,19.6,17,30.6,17h46.4C1888.4,531.8,1892.7,524.1,1886.9,514.7z"/>
</g>
</svg>
